# Blender v2.73 (sub 0) OBJ File: 'android_lo.blend'
# www.blender.org
o Cylinder
v 0.411755 -0.482382 0.334960
v -0.134525 -0.481531 0.515396
v -0.350557 -0.519692 0.362749
v -0.517872 -0.480753 0.094104
v 0.538251 0.384452 0.094413
v 0.408653 0.541650 0.250709
v -0.117811 0.646861 0.437260
v -0.440718 0.373538 0.321906
v 0.102625 0.692357 0.388749
v 0.175994 0.802967 0.169988
v -0.115603 0.796028 0.228566
v -0.121018 0.374916 0.514495
v 0.253418 0.381397 0.474112
v 0.468347 0.320317 0.255934
v 0.199151 0.320291 0.491063
v -0.183522 0.320365 0.497700
v -0.490503 0.320420 0.207153
v 0.121624 -0.523196 0.489590
v -0.243633 -0.551541 0.285353
v 0.107448 -0.331836 0.676464
v 0.109635 0.291669 0.708348
v 0.010857 0.281081 0.791824
v -0.104367 0.276439 0.608579
v 0.197720 -0.316704 0.141321
v 0.117868 -0.316704 0.303599
v -0.204022 -0.316704 0.295295
v -0.232514 -0.316704 0.103220
v 0.018413 0.748474 0.213112
v -0.006697 0.738777 0.230829
v -0.011066 0.754732 0.201672
v 0.004187 0.960799 0.317623
v -0.004343 0.950397 0.339778
v -0.089355 0.293872 0.741063
v -0.011183 0.357480 0.677654
v 0.049171 0.301774 0.571208
v -0.009515 -0.369958 0.682910
v 0.052737 -0.332121 0.585829
v 0.017472 -0.311905 0.791002
v -0.118492 -0.315993 0.678259
v -0.031157 -0.334775 0.576468
v -0.131827 -0.919712 0.191793
v 0.054163 -0.919134 0.191871
v 0.157028 -0.849333 0.270949
v -0.206701 -0.853978 0.101698
v -0.211429 -0.841694 0.286238
v 0.149614 -0.841561 0.102284
v 0.337084 0.608796 0.266641
v 0.176011 0.538168 0.228785
v 0.176095 0.629726 0.272182
v 0.175919 0.599256 0.184398
v 0.348602 0.548972 0.208201
v 0.357628 0.565991 0.266904
v 0.378954 0.613346 0.247185
v 0.359170 0.611307 0.193223
v 0.359325 0.653723 0.221861
v 0.411828 0.592998 0.186434
v 0.196994 -0.281885 0.285140
v -0.270770 -0.281885 0.261825
v 0.516410 0.325495 -0.115836
v 0.062919 -0.487314 -0.523422
v -0.352884 0.374728 -0.409974
v -0.037873 0.403816 -0.538609
v -0.426555 0.640322 -0.122240
v -0.415278 0.666586 0.119357
v 0.359326 0.653723 -0.221861
v 0.322641 0.767001 -0.071222
v 0.102625 0.692355 -0.388750
v -0.204524 0.706715 -0.334169
v 0.017933 0.842898 -0.129608
v -0.236966 0.807981 -0.045264
v -0.520226 0.383913 -0.097979
v 0.285221 0.379370 -0.451639
v 0.510932 0.376829 -0.152937
v 0.311863 0.320365 -0.429100
v -0.143238 0.320398 -0.516423
v -0.475835 0.320292 -0.246524
v 0.510475 -0.521366 0.048777
v -0.459442 -0.486999 -0.260721
v 0.194643 -0.552119 0.282050
v 0.180342 -0.551923 -0.290284
v -0.271630 -0.551555 -0.266858
v -0.198169 -0.524671 -0.454003
v -0.463663 -0.547697 -0.046904
v 0.397005 -0.525651 -0.316932
v 0.086187 0.316518 -0.618883
v 0.094703 0.283427 -0.740643
v -0.192009 -0.845011 -0.293605
v 0.159190 -0.316704 -0.102340
v 0.163774 -0.316704 -0.280669
v -0.204022 -0.316704 -0.295295
v -0.232514 -0.316704 -0.103220
v 0.009546 0.738737 -0.230892
v -0.017589 0.750172 -0.210007
v 0.008305 0.754776 -0.201591
v -0.019470 0.355644 -0.679149
v -0.112314 0.288319 -0.624900
v 0.004288 0.284271 -0.559770
v -0.039635 0.290085 -0.787391
v -0.001564 -0.372016 -0.669424
v 0.026852 -0.324761 -0.783164
v -0.098093 -0.306872 -0.732473
v -0.097619 -0.317364 -0.623291
v 0.110921 -0.323907 -0.675780
v 0.014365 -0.311097 -0.558358
v -0.004615 0.951183 -0.339288
v 0.005624 0.960162 -0.315745
v 0.045676 -0.918483 -0.173300
v -0.115255 -0.922242 -0.191871
v 0.152233 -0.853614 -0.273783
v -0.240910 -0.843722 -0.172950
v -0.180139 -0.841714 -0.084725
v 0.145659 -0.844532 -0.101257
v 0.337084 0.608797 -0.266641
v 0.176059 0.543726 -0.253016
v 0.176093 0.622278 -0.271841
v 0.175906 0.600578 -0.177737
v 0.362638 0.544369 -0.223540
v 0.354103 0.602938 -0.274052
v 0.380634 0.582642 -0.226444
v 0.362879 0.623780 -0.202536
v 0.411828 0.592997 -0.186435
v 0.408653 0.541651 -0.250709
v 0.167053 -0.281885 -0.300976
v -0.257749 -0.281885 -0.271271
vt 0.249425 0.452523
vt 0.248894 0.534324
vt 0.128736 0.494716
vt 0.369804 0.472406
vt 0.321029 0.568538
vt 0.521324 0.562618
vt 0.400270 0.664854
vt 0.452112 0.600712
vt 0.417383 0.575399
vt 0.123653 0.606480
vt 0.133370 0.603254
vt 0.205299 0.664150
vt 0.423674 0.599232
vt 0.339987 0.650361
vt 0.251630 0.623786
vt 0.287650 0.666605
vt 0.236631 0.427755
vt 0.077632 0.417685
vt 0.175393 0.127529
vt 0.380906 0.428711
vt 0.262158 0.147529
vt 0.515827 0.421481
vt 0.457066 0.139968
vt 0.095469 0.094486
vt 0.193208 0.067565
vt 0.348203 0.129899
vt 0.397888 0.053453
vt 0.063147 0.123698
vt 0.667112 0.649425
vt 0.627765 0.659121
vt 0.642235 0.426313
vt 0.857856 0.654532
vt 0.817772 0.642523
vt 0.818234 0.446388
vt 0.779888 0.650767
vt 0.752318 0.642777
vt 0.763573 0.438764
vt 0.717503 0.646945
vt 0.693817 0.437116
vt 0.226347 0.885795
vt 0.109409 0.885757
vt 0.107626 0.730469
vt 0.290958 0.885816
vt 0.240341 0.730512
vt 0.825961 0.803151
vt 0.860144 0.772808
vt 0.912474 0.776645
vt 0.038533 0.885734
vt 0.898808 0.481971
vt 0.893158 0.561476
vt 0.888736 0.557899
vt 0.893442 0.400140
vt 0.898431 0.474912
vt 0.888504 0.476675
vt 0.847599 0.248406
vt 0.845969 0.106558
vt 0.950809 0.010499
vt 0.913889 0.321044
vt 0.961649 0.338356
vt 0.767686 0.810413
vt 0.787815 0.858305
vt 0.675273 0.726165
vt 0.540755 0.724736
vt 0.435546 0.827505
vt 0.807069 0.684252
vt 0.683769 0.685696
vt 0.667695 0.437510
vt 0.691609 0.403613
vt 0.811026 0.406216
vt 0.724680 0.431662
vt 0.859265 0.429798
vt 0.949850 0.746523
vt 0.948145 0.802839
vt 0.830709 0.740069
vt 0.635157 0.114208
vt 0.733012 0.142479
vt 0.728336 0.262422
vt 0.445718 0.570944
vt 0.825406 0.364460
vt 0.888783 0.364160
vt 0.885811 0.381331
vt 0.813862 0.843121
vt 0.867314 0.863423
vt 0.868186 0.877789
vt 0.868083 0.893754
vt 0.801845 0.871108
vt 0.857400 0.908059
vt 0.123714 0.134128
vt 0.093049 0.418980
vt 0.252908 0.428074
vt 0.537762 0.540917
vt 0.150709 0.489495
vt 0.043756 0.536390
vt 0.225158 0.577154
vt 0.408569 0.472705
vt 0.292225 0.460435
vt 0.326715 0.147898
vt 0.428628 0.427003
vt 0.454202 0.122607
vt 0.571229 0.416732
vt 0.539335 0.110545
vt 0.391767 0.055591
vt 0.178828 0.064382
vt 0.237780 0.128976
vt 0.414988 0.730571
vt 0.310738 0.730536
vt 0.309132 0.885822
vt 0.414927 0.885859
vt 0.310933 0.730536
vt 0.677996 0.448518
vt 0.650051 0.658120
vt 0.680379 0.643099
vt 0.856050 0.428402
vt 0.847151 0.647017
vt 0.862956 0.666172
vt 0.818992 0.443938
vt 0.801865 0.644603
vt 0.781171 0.440252
vt 0.760329 0.653385
vt 0.720556 0.650599
vt 0.244408 0.730513
vt 0.243689 0.885801
vt 0.110563 0.730470
vt 0.063536 0.730455
vt 0.836709 0.732342
vt 0.861867 0.775390
vt 0.910182 0.771720
vt 0.892683 0.481964
vt 0.888304 0.558690
vt 0.896883 0.558990
vt 0.881657 0.481974
vt 0.897126 0.400146
vt 0.888001 0.475428
vt 0.893118 0.478844
vt 0.886104 0.400140
vt 0.861176 0.265535
vt 0.881580 0.069474
vt 0.714438 0.748659
vt 0.556091 0.722468
vt 0.441446 0.814189
vt 0.804649 0.683958
vt 0.685968 0.686632
vt 0.823401 0.406746
vt 0.944159 0.804552
vt 0.832067 0.809237
vt 0.722725 0.254557
vt 0.638370 0.293056
vt 0.825476 0.364329
vt 0.825571 0.393281
vt 0.890271 0.383773
vt 0.813676 0.843564
vt 0.802148 0.870183
vt 0.861527 0.887810
vt 0.861434 0.902891
vt 0.899458 0.371723
vt 0.890263 0.360264
vt 0.729671 0.146179
vt 0.641800 0.101139
vt 0.031921 0.730445
vt 0.882502 0.400147
vt 0.887069 0.481964
vt 0.900796 0.400156
vt 0.738002 0.664694
vt 0.825539 0.390991
vt 0.825753 0.346729
vt 0.900237 0.362232
vt 0.895451 0.388842
vt 0.643781 0.430567
vt 0.719464 0.435118
vt 0.014565 0.730439
vt 0.880401 0.400153
vt 0.767280 0.421602
vt 0.680819 0.408639
vt 0.948562 0.747587
vt 0.814995 0.764376
vt 0.872561 0.873385
vt 0.795445 0.887197
vt 0.876060 0.891490
vt 0.641143 0.298366
vn -0.169000 -0.546200 0.820400
vn -0.246400 0.539400 0.805200
vn -0.706300 -0.486600 0.514100
vn 0.413900 -0.486500 0.769400
vn 0.237700 0.640200 0.730400
vn 0.871900 -0.462700 0.160100
vn 0.588000 0.800000 -0.119300
vn 0.822700 0.499400 0.271300
vn 0.588600 0.440500 0.677800
vn -0.797200 0.539500 -0.270900
vn -0.763600 0.587800 0.267000
vn -0.394300 0.916200 -0.071800
vn 0.679200 0.572300 0.459500
vn 0.290300 0.911600 0.290800
vn -0.216500 0.901700 0.374200
vn 0.037600 0.975200 -0.217800
vn -0.280300 0.636100 0.718800
vn -0.715100 0.631700 0.299300
vn -0.565700 -0.601900 0.563600
vn 0.274800 0.638600 0.718700
vn -0.226400 -0.465300 0.855700
vn 0.681800 0.633800 0.365200
vn 0.656500 -0.506900 0.558500
vn -0.534800 -0.842400 -0.065200
vn 0.220300 -0.955100 -0.198100
vn 0.210400 -0.634800 0.743400
vn -0.185100 -0.966900 -0.175300
vn -0.896700 -0.399300 0.190800
vn 0.378100 0.490900 -0.784900
vn 0.864200 0.450100 0.224900
vn 0.849300 -0.524000 0.063800
vn 0.110600 0.395000 0.912000
vn 0.091600 -0.435400 0.895500
vn -0.723600 0.459000 0.515500
vn -0.757500 0.380400 -0.530600
vn -0.887400 -0.451700 0.092000
vn -0.311200 -0.547400 -0.776800
vn 0.501100 0.001400 0.865400
vn -0.656100 -0.003800 0.754600
vn -0.631500 -0.420100 0.651600
vn 0.874300 0.065100 -0.481000
vn 0.651700 -0.471500 0.594100
vn -0.212700 -0.976700 0.030000
vn 0.172400 -0.985000 0.007600
vn -0.737800 0.030900 -0.674300
vn 0.992600 0.060500 -0.104900
vn 0.184000 0.980200 -0.073200
vn -0.178000 0.501700 0.846600
vn -0.606400 0.383400 -0.696600
vn 0.832900 -0.498800 -0.239600
vn 0.748000 0.640700 -0.172900
vn -0.069500 0.997400 0.016100
vn 0.468000 -0.522300 -0.712900
vn -0.092100 -0.986900 0.132300
vn 0.611300 -0.424700 -0.667700
vn -0.616900 -0.446700 -0.647900
vn 0.614000 -0.578800 -0.536600
vn -0.583800 -0.574800 -0.573400
vn 0.753900 0.344100 0.559600
vn -0.062700 0.301600 -0.951400
vn 0.526400 0.455100 -0.718100
vn 0.463500 -0.762500 -0.451300
vn -0.125600 -0.989600 0.070300
vn 0.518300 -0.456100 0.723400
vn 0.810900 0.495700 0.311000
vn -0.109300 0.683200 0.722000
vn -0.753600 -0.456400 -0.473000
vn -0.693800 0.627300 -0.353800
vn -0.203900 0.626500 -0.752300
vn 0.773900 0.370800 -0.513400
vn -0.569200 -0.494700 -0.656600
vn -0.858200 -0.493300 -0.141700
vn -0.375900 0.677800 -0.631800
vn 0.859500 0.431000 -0.274600
vn 0.662200 0.553000 -0.505600
vn 0.461600 -0.496500 -0.735100
vn 0.204100 0.660700 -0.722300
vn 0.588400 0.441400 -0.677400
vn -0.064500 -0.353900 -0.933000
vn 0.131900 -0.522600 -0.842300
vn 0.439200 0.628300 -0.642100
vn 0.614900 -0.621700 -0.485100
vn 0.778300 -0.626800 0.038400
vn -0.242200 -0.960400 0.137600
vn 0.173000 -0.974300 0.143800
vn -0.319000 -0.636000 -0.702600
vn -0.396500 -0.426300 0.813000
vn 0.644100 -0.418200 0.640500
vn 0.710000 -0.002200 0.704200
vn 0.150500 -0.430500 0.889900
vn 0.696300 0.593000 0.404200
vn 0.016100 0.390300 0.920500
vn 0.870400 -0.491700 0.024000
vn 0.745800 0.411300 -0.524000
vn 0.201100 -0.512500 -0.834800
vn -0.333200 0.444000 -0.831700
vn -0.756900 -0.427900 -0.493900
vn -0.849400 0.424600 0.313400
vn 0.657200 -0.469000 -0.590000
vn 0.734300 -0.021900 -0.678400
vn -0.488100 -0.432800 -0.757900
vn -0.628900 0.016100 -0.777300
vn -0.887600 -0.450500 0.095800
vn -0.757300 0.042500 0.651700
vn -0.180700 -0.983200 -0.023600
vn 0.179800 -0.974600 0.133000
vn 0.437800 -0.433100 -0.787900
vn -0.187100 0.534200 -0.824400
vn 0.232700 0.967300 0.101000
vn -0.982200 0.082700 0.168900
vn 0.558400 0.408600 0.722000
vn -0.145600 0.987600 -0.058700
vn -0.029000 -0.998700 0.042700
vn -0.524000 -0.576700 0.626800
vn -0.116600 0.204600 0.971900
vn -0.070400 -0.932400 -0.354500
vn 0.516500 -0.840000 0.166000
vn -0.072800 0.691600 -0.718600
vn 0.464200 0.258900 -0.847000
vn 0.537600 0.632500 0.557500
vn 0.991500 -0.096700 0.087200
vn 0.568700 -0.589800 0.573300
vn -0.371900 -0.421600 0.827000
vn -0.762700 -0.483200 0.429800
s 1
f 12/1/1 7/2/2 8/3/3
f 7/2/2 13/4/4 9/5/5
f 5/6/6 66/7/7 56/8/8
f 13/4/4 47/9/9 9/5/5
f 63/10/10 64/11/11 70/12/12
f 55/13/13 66/7/7 10/14/14
f 7/2/2 11/15/15 64/11/11
f 9/5/5 10/14/14 11/15/15
f 10/14/14 66/7/7 69/16/16
f 11/15/15 10/14/14 69/16/16
f 70/12/12 11/15/15 69/16/16
f 16/17/17 17/18/18 3/19/19
f 15/20/20 16/17/17 2/21/21
f 14/22/22 15/20/20 1/23/23
f 3/19/19 83/24/24 19/25/25
f 18/26/26 19/25/25 79/27/27
f 2/21/21 3/19/19 18/26/26
f 4/28/28 83/24/24 3/19/19
f 35/29/29 21/30/30 20/31/31
f 21/32/30 22/33/32 38/34/33
f 22/33/32 33/35/34 38/34/33
f 33/35/34 23/36/35 39/37/36
f 23/38/35 35/29/29 40/39/37
f 25/40/38 26/41/39 45/42/40
f 24/43/41 25/40/38 43/44/42
f 45/45/40 41/46/43 42/47/44
f 26/41/39 27/48/45 45/42/40
f 28/49/46 31/50/47 32/51/48
f 30/52/49 32/53/48 31/54/47
f 13/55/4 12/56/1 8/57/3
f 5/58/6 13/55/4 8/57/3
f 73/59/50 5/58/6 8/57/3
f 14/60/22 59/61/51 15/62/20
f 15/62/20 59/61/51 16/63/17
f 16/63/17 59/61/51 17/64/18
f 22/33/32 21/32/30 34/65/52
f 23/38/35 34/66/52 35/29/29
f 37/67/53 20/31/31 36/68/54
f 38/34/33 39/37/36 36/69/54
f 39/70/36 40/39/37 36/68/54
f 38/34/33 36/69/54 20/71/31
f 46/72/55 43/73/42 42/47/44
f 44/74/56 46/72/55 42/47/44
f 19/75/25 58/76/57 57/77/58
f 55/13/13 47/9/9 56/8/8
f 56/8/8 47/9/9 6/78/59
f 50/79/60 54/80/61 51/81/62
f 48/82/63 51/83/62 52/84/64
f 52/84/64 53/85/65 49/86/66
f 53/85/65 54/87/61 49/86/66
f 78/88/67 76/89/68 75/90/69
f 73/91/50 122/78/70 5/6/6
f 61/92/71 71/93/72 63/10/10
f 71/93/72 64/11/11 63/10/10
f 61/92/71 63/10/10 68/94/73
f 121/8/74 65/13/75 66/7/7
f 72/95/76 67/5/77 113/9/78
f 62/96/79 68/94/73 67/5/77
f 63/10/10 70/12/12 68/94/73
f 70/12/12 69/16/16 68/94/73
f 61/92/71 8/3/3 71/93/72
f 4/28/28 17/18/18 76/89/68
f 60/97/80 75/90/69 74/98/81
f 84/99/82 74/98/81 59/100/51
f 84/99/82 59/100/51 77/101/83
f 77/101/83 79/27/27 80/102/84
f 80/102/84 81/103/85 82/104/86
f 111/105/87 112/106/88 88/107/89
f 82/104/86 83/24/24 78/88/67
f 60/97/80 84/99/82 82/104/86
f 27/108/45 24/43/41 46/109/55
f 104/110/90 85/111/91 97/112/92
f 103/113/93 86/114/94 85/115/91
f 100/116/95 98/117/96 86/114/94
f 101/118/97 96/119/98 98/117/96
f 104/110/90 97/112/92 96/120/98
f 112/106/88 109/121/99 89/122/100
f 87/123/101 90/41/102 89/122/100
f 110/124/103 91/48/104 90/41/102
f 111/125/87 108/126/105 107/127/106
f 92/128/107 105/129/108 106/130/109
f 92/128/107 93/131/110 105/129/108
f 93/132/110 106/133/109 105/134/108
f 93/132/110 94/135/111 106/133/109
f 72/136/76 8/57/3 61/137/71
f 73/59/50 8/57/3 72/136/76
f 74/138/81 75/139/69 59/61/51
f 75/139/69 76/140/68 59/61/51
f 76/140/68 17/64/18 59/61/51
f 86/114/94 95/141/112 85/115/91
f 85/111/91 95/142/112 97/112/92
f 103/113/93 99/143/113 100/116/95
f 109/144/99 108/126/105 87/145/101
f 57/77/58 123/146/114 80/147/84
f 65/13/75 121/8/74 113/9/78
f 121/8/74 122/78/70 113/9/78
f 116/148/115 114/149/116 117/150/117
f 114/151/116 115/152/118 118/153/119
f 115/152/118 120/154/120 118/153/119
f 117/150/117 119/155/121 120/156/120
f 124/157/122 58/76/57 81/158/85
f 80/147/84 123/146/114 124/157/122
f 123/146/114 57/77/58 124/157/122
f 124/157/122 57/77/58 58/76/57
f 5/6/6 6/78/59 13/4/4
f 12/1/1 13/4/4 7/2/2
f 8/3/3 64/11/11 71/93/72
f 64/11/11 8/3/3 7/2/2
f 9/5/5 55/13/13 10/14/14
f 11/15/15 7/2/2 9/5/5
f 70/12/12 64/11/11 11/15/15
f 77/101/83 59/100/51 14/22/22
f 77/101/83 14/22/22 1/23/23
f 1/23/23 15/20/20 18/26/26
f 18/26/26 15/20/20 2/21/21
f 2/21/21 16/17/17 3/19/19
f 3/19/19 17/18/18 4/28/28
f 18/26/26 3/19/19 19/25/25
f 19/25/25 83/24/24 81/103/85
f 77/101/83 18/26/26 79/27/27
f 77/101/83 1/23/23 18/26/26
f 40/39/37 35/29/29 37/67/53
f 37/67/53 35/29/29 20/31/31
f 20/71/31 21/32/30 38/34/33
f 38/34/33 33/35/34 39/37/36
f 39/70/36 23/38/35 40/39/37
f 46/109/55 24/43/41 43/44/42
f 45/42/40 27/48/45 44/159/56
f 30/52/49 31/54/47 28/160/46
f 28/49/46 32/51/48 29/161/123
f 29/162/123 32/53/48 30/52/49
f 33/35/34 22/33/32 34/65/52
f 34/66/52 21/30/30 35/29/29
f 23/38/35 33/163/34 34/66/52
f 40/39/37 37/67/53 36/68/54
f 41/46/43 45/45/40 44/74/56
f 48/164/63 50/79/60 51/81/62
f 49/86/66 48/82/63 52/84/64
f 49/165/66 54/80/61 50/79/60
f 51/81/62 54/80/61 53/166/65
f 52/167/64 51/81/62 53/166/65
f 19/75/25 81/158/85 58/76/57
f 73/91/50 72/95/76 122/78/70
f 72/95/76 62/96/79 67/5/77
f 61/92/71 68/94/73 62/96/79
f 67/5/77 66/7/7 65/13/75
f 67/5/77 68/94/73 69/16/16
f 66/7/7 67/5/77 69/16/16
f 72/95/76 61/92/71 62/96/79
f 84/99/82 60/97/80 74/98/81
f 60/97/80 82/104/86 75/90/69
f 78/88/67 4/28/28 76/89/68
f 84/99/82 80/102/84 82/104/86
f 83/24/24 82/104/86 81/103/85
f 78/88/67 83/24/24 4/28/28
f 104/110/90 103/168/93 85/111/91
f 103/113/93 100/116/95 86/114/94
f 100/116/95 101/118/97 98/117/96
f 101/118/97 102/169/124 96/120/98
f 102/169/124 104/110/90 96/120/98
f 110/124/103 111/170/87 91/48/104
f 94/135/111 92/171/107 106/133/109
f 86/114/94 98/117/96 95/141/112
f 97/112/92 95/142/112 96/120/98
f 96/119/98 95/141/112 98/117/96
f 101/118/97 99/143/113 102/172/124
f 104/110/90 102/169/124 99/173/113
f 101/118/97 100/116/95 99/143/113
f 103/168/93 104/110/90 99/173/113
f 109/144/99 107/127/106 108/126/105
f 109/144/99 112/174/88 107/127/106
f 110/175/103 108/126/105 111/125/87
f 110/175/103 87/145/101 108/126/105
f 120/156/120 116/148/115 117/150/117
f 117/176/117 114/151/116 118/153/119
f 115/152/118 116/177/115 120/154/120
f 117/176/117 118/153/119 119/178/121
f 118/153/119 120/154/120 119/178/121
f 66/7/7 55/13/13 56/8/8
f 56/8/8 6/78/59 5/6/6
f 47/9/9 55/13/13 9/5/5
f 47/9/9 13/4/4 6/78/59
f 43/44/42 25/40/38 45/42/40
f 43/73/42 45/45/40 42/47/44
f 41/46/43 44/74/56 42/47/44
f 79/179/27 19/75/25 57/77/58
f 82/104/86 78/88/67 75/90/69
f 121/8/74 66/7/7 5/6/6
f 5/6/6 122/78/70 121/8/74
f 113/9/78 122/78/70 72/95/76
f 67/5/77 65/13/75 113/9/78
f 84/99/82 77/101/83 80/102/84
f 91/108/104 111/105/87 88/107/89
f 44/105/56 27/108/45 46/109/55
f 88/107/89 112/106/88 89/122/100
f 109/121/99 87/123/101 89/122/100
f 87/123/101 110/124/103 90/41/102
f 112/174/88 111/125/87 107/127/106
f 79/179/27 57/77/58 80/147/84
f 81/158/85 80/147/84 124/157/122
