# Blender v2.73 (sub 0) OBJ File: 'benchmark1.blend'
# www.blender.org
o box
v -21.221680 11.776319 -21.130659
v -21.221676 11.776319 21.517714
v -21.221682 0.001911 -21.130659
v -21.221680 0.001911 21.517714
v 21.033012 11.776320 -21.130659
v 21.033016 11.776320 21.517714
v 21.033014 0.001911 -21.130659
v 21.033018 0.001911 21.517714
v -21.390839 11.776320 -21.265032
v 21.257534 11.776320 -21.265034
v -21.390837 0.001911 -21.265032
v 21.257534 0.001912 -21.265032
v -21.390839 11.776319 21.222561
v 21.257532 11.776320 21.222559
v -21.390837 0.001911 21.222561
v 21.257534 0.001912 21.222561
v -21.278772 0.000000 21.278776
v 21.278780 0.000000 21.278776
v -21.278772 -0.000000 -21.278776
v 21.278780 0.000001 -21.278776
vt 0.999845 0.500684
vt 0.999845 0.638785
vt 0.499626 0.638785
vt 0.999845 0.639095
vt 0.999845 0.777196
vt 0.499626 0.777196
vt 0.637727 0.500374
vt 0.499626 0.500374
vt 0.499627 0.000155
vt 0.776138 0.500374
vt 0.638038 0.500374
vt 0.638038 0.000155
vt 0.499308 0.499316
vt 0.000155 0.499308
vt 0.000163 0.000155
vt 0.499626 0.500684
vt 0.499626 0.639095
vt 0.637727 0.000155
vt 0.776138 0.000155
vt 0.499316 0.000163
vn 1.000000 0.000000 -0.000000
vn 0.000000 -0.000000 -1.000000
vn -0.000000 1.000000 0.000000
s off
f 2/1/1 4/2/1 3/3/1
f 6/4/1 8/5/1 7/6/1
f 10/7/2 12/8/2 11/9/2
f 14/10/2 16/11/2 15/12/2
f 18/13/3 20/14/3 19/15/3
f 1/16/1 2/1/1 3/3/1
f 5/17/1 6/4/1 7/6/1
f 9/18/2 10/7/2 11/9/2
f 13/19/2 14/10/2 15/12/2
f 17/20/3 18/13/3 19/15/3
