# Blender v2.73 (sub 0) OBJ File: 'walk_panel1.blend'
# www.blender.org
o Cube_walk_panel1
v 0.945260 -0.000001 -1.000000
v 1.000000 -0.000001 -0.945260
v 1.000000 -0.000001 0.945260
v 0.945260 -0.000001 1.000000
v -0.945260 -0.000001 1.000000
v -1.000000 -0.000001 0.945260
v -1.000000 -0.000001 -0.945260
v -0.945260 -0.000001 -1.000000
v 1.000000 0.104883 -0.945260
v 0.966411 0.138473 -0.931346
v 0.945260 0.104883 -1.000000
v 0.931347 0.138473 -0.966410
v 0.945260 0.104883 1.000000
v 0.931346 0.138473 0.966411
v 1.000000 0.104883 0.945261
v 0.966410 0.138473 0.931347
v -1.000000 0.104883 0.945260
v -0.966410 0.138473 0.931346
v -0.945260 0.104883 1.000000
v -0.931347 0.138473 0.966410
v -0.945260 0.104883 -1.000000
v -0.931347 0.138473 -0.966410
v -1.000000 0.104883 -0.945260
v -0.966410 0.138473 -0.931347
vt 0.045372 0.936293
vt 0.066301 0.955682
vt 0.036422 0.995055
vt 0.704721 0.955683
vt 0.724178 0.934386
vt 0.764033 0.964934
vt 0.764146 0.274418
vt 0.724138 0.304219
vt 0.703233 0.282898
vt 0.066044 0.283252
vt 0.045950 0.304234
vt 0.006714 0.273996
vt 0.040510 0.243322
vt 0.729189 0.244560
vt 0.006352 0.961730
vt 0.730073 0.995055
vt 0.055891 0.229515
vt 0.049937 0.017950
vt 0.261503 0.011996
vt 0.073620 0.300165
vt 0.061945 0.312126
vt 0.062015 0.928627
vt 0.074147 0.939228
vt 0.697209 0.939225
vt 0.708021 0.926375
vt 0.695232 0.299695
vt 0.708056 0.312029
vt 0.267456 0.223561
vt 0.261503 0.229515
vt 0.267456 0.017950
vt 0.055891 0.011996
vt 0.049938 0.223561
vn 0.707100 -0.000000 0.707100
vn -0.707100 -0.000000 0.707100
vn -0.707100 0.000000 -0.707100
vn 0.707100 0.000000 -0.707100
vn 0.000000 0.000000 -1.000000
vn 1.000000 0.000000 0.000000
vn -0.000000 0.000000 1.000000
vn -1.000000 -0.000000 -0.000000
vn 0.000000 -1.000000 0.000000
vn 0.500000 0.707100 -0.500000
vn 0.500000 0.707100 0.500000
vn -0.500000 0.707100 0.500000
vn -0.500000 0.707100 -0.500000
vn 0.000000 0.707100 -0.707100
vn 0.707100 0.707100 0.000000
vn -0.000000 0.707100 0.707100
vn -0.707100 0.707100 -0.000000
vn 0.000000 1.000000 0.000000
s off
f 15/1/1 13/2/1 4/3/1
f 19/4/2 17/5/2 6/6/2
f 7/7/3 23/8/3 21/9/3
f 11/10/4 9/11/4 2/12/4
f 1/13/5 8/14/5 21/9/5
f 9/11/6 15/1/6 3/15/6
f 13/2/7 19/4/7 5/16/7
f 17/5/8 23/8/8 7/7/8
f 1/17/9 3/18/9 5/19/9
f 12/20/10 10/21/10 9/11/10
f 16/22/11 14/23/11 13/2/11
f 20/24/12 18/25/12 17/5/12
f 22/26/13 21/9/13 23/8/13
f 12/20/14 11/10/14 21/9/14
f 10/21/15 16/22/15 15/1/15
f 20/24/16 19/4/16 13/2/16
f 24/27/17 23/8/17 17/5/17
f 10/21/18 12/20/18 18/25/18
f 3/15/1 15/1/1 4/3/1
f 5/16/2 19/4/2 6/6/2
f 8/14/3 7/7/3 21/9/3
f 1/13/4 11/10/4 2/12/4
f 11/10/5 1/13/5 21/9/5
f 2/12/6 9/11/6 3/15/6
f 4/3/7 13/2/7 5/16/7
f 6/6/8 17/5/8 7/7/8
f 7/28/9 8/29/9 1/17/9
f 5/19/9 6/30/9 7/28/9
f 3/18/9 4/31/9 5/19/9
f 1/17/9 2/32/9 3/18/9
f 5/19/9 7/28/9 1/17/9
f 11/10/10 12/20/10 9/11/10
f 15/1/11 16/22/11 13/2/11
f 19/4/12 20/24/12 17/5/12
f 24/27/13 22/26/13 23/8/13
f 22/26/14 12/20/14 21/9/14
f 9/11/15 10/21/15 15/1/15
f 14/23/16 20/24/16 13/2/16
f 18/25/17 24/27/17 17/5/17
f 14/23/18 16/22/18 10/21/18
f 10/21/18 20/24/18 14/23/18
f 12/20/18 24/27/18 18/25/18
f 24/27/18 12/20/18 22/26/18
f 18/25/18 20/24/18 10/21/18
