# Blender v2.73 (sub 0) OBJ File: 'walk_curb.blend'
# www.blender.org
o Cube_walk_curb
v 0.000000 0.000000 0.986246
v 0.013754 0.013754 1.000000
v 0.000000 0.000000 -0.986246
v 0.013754 0.013754 -1.000000
v 0.186246 0.013754 -1.000000
v 0.200000 0.000000 -0.986246
v 0.200000 0.000000 0.986246
v 0.186246 0.013754 1.000000
v 0.000000 0.092842 0.986246
v 0.007158 0.100000 0.986246
v 0.020911 0.086246 1.000000
v 0.013754 0.079089 1.000000
v 0.007158 0.100000 -0.986246
v 0.000000 0.092842 -0.986246
v 0.013754 0.079089 -1.000000
v 0.020911 0.086246 -1.000000
v 0.144819 0.086246 -1.000000
v 0.153383 0.082877 -1.000000
v 0.167137 0.096630 -0.986246
v 0.158573 0.100000 -0.986246
v 0.158573 0.100000 0.986246
v 0.167137 0.096630 0.986246
v 0.153383 0.082877 1.000000
v 0.144819 0.086246 1.000000
v 0.183439 0.052821 -1.000000
v 0.186246 0.045685 -1.000000
v 0.200000 0.059439 -0.986246
v 0.197192 0.066575 -0.986246
v 0.197192 0.066575 0.986246
v 0.200000 0.059439 0.986246
v 0.186246 0.045685 1.000000
v 0.183439 0.052821 1.000000
vt 0.937989 0.589491
vt 0.975402 0.976189
vt 0.024531 0.976189
vt 0.092007 0.192091
vt 0.088727 0.132915
vt 0.103242 0.131053
vt 0.106418 0.183036
vt 0.889040 0.134586
vt 0.954085 0.443042
vt 0.058521 0.589573
vt 0.069973 0.085603
vt 0.075440 0.043650
vt 0.101997 0.116691
vt 0.915200 0.043642
vt 0.949393 0.588890
vt 0.983990 0.931233
vt 0.032873 0.475264
vt 0.041335 0.442310
vt 0.016010 0.936102
vt 0.047322 0.590151
vt 0.016010 0.330534
vt 0.090568 0.206208
vt 0.915155 0.402259
vt 0.885968 0.202062
vt 0.900131 0.210416
vt 0.070625 0.399616
vt 0.060946 0.370705
vt 0.921371 0.084185
vt 0.899623 0.196088
vt 0.067238 0.423529
vt 0.053801 0.380711
vt 0.925666 0.375506
vt 0.932680 0.385749
vt 0.919032 0.428479
vt 0.885722 0.185512
vt 0.105952 0.200398
vt 0.904530 0.135313
vt 0.890282 0.119560
vt 0.907076 0.123702
vt 0.086275 0.122588
vt 0.962528 0.496192
vt 0.983833 0.344744
vn -0.650700 -0.650700 -0.391300
vn 0.650700 -0.650700 -0.391300
vn 0.650700 -0.650700 0.391300
vn 0.181400 0.292900 0.938700
vn 0.292900 0.181400 0.938700
vn 0.750400 0.498800 0.433600
vn 0.498800 0.750400 0.433600
vn 0.750400 0.498800 -0.433600
vn -0.835700 0.366200 -0.409300
vn -0.650700 -0.650700 0.391300
vn 0.300200 -0.300200 0.905400
vn 0.893900 0.186800 0.407300
vn -0.300200 -0.300200 -0.905400
vn 0.300200 -0.300200 -0.905400
vn -0.386200 0.113200 0.915400
vn -0.835700 0.366200 0.409300
vn -0.300200 -0.300200 0.905400
vn 0.048100 0.390700 0.919200
vn -0.366200 0.835700 -0.409300
vn 0.186800 0.893900 -0.407300
vn 0.048100 0.390700 -0.919200
vn -0.366200 0.835700 0.409300
vn -0.113200 0.386200 0.915400
vn 0.181400 0.292900 -0.938700
vn -0.113200 0.386200 -0.915400
vn -0.386200 0.113200 -0.915400
vn 0.498800 0.750400 -0.433600
vn 0.186800 0.893900 0.407300
vn 0.292900 0.181400 -0.938700
vn 0.893900 0.186800 -0.407300
vn 0.390700 0.048100 -0.919200
vn 0.390700 0.048100 0.919200
s 1
f 3/1/1 6/2/2 7/3/3
f 23/4/4 32/5/5 29/6/6
f 22/7/7 29/6/6 28/8/8
f 14/9/9 3/1/1 1/10/10
f 8/11/11 7/12/3 30/13/12
f 30/13/12 7/12/3 6/14/2
f 3/1/1 4/15/13 5/16/14
f 12/17/15 9/18/16 1/10/10
f 4/15/13 3/1/1 14/9/9
f 7/3/3 8/19/11 2/20/17
f 2/21/17 8/11/11 24/22/18
f 13/23/19 20/24/20 17/25/21
f 10/26/22 11/27/23 24/22/18
f 20/24/20 13/23/19 10/26/22
f 5/28/14 17/25/21 18/29/24
f 10/26/22 9/30/16 12/31/15
f 13/23/19 16/32/25 15/33/26
f 13/23/19 14/34/9 9/30/16
f 20/24/20 19/35/27 18/29/24
f 21/36/28 24/22/18 23/4/4
f 21/36/28 22/7/7 19/35/27
f 25/37/29 18/29/24 19/35/27
f 27/38/30 26/39/31 25/37/29
f 30/13/12 29/6/6 32/5/5
f 27/38/30 28/8/8 29/6/6
f 27/38/30 6/14/2 5/28/14
f 1/10/10 3/1/1 7/3/3
f 22/7/7 23/4/4 29/6/6
f 19/35/27 22/7/7 28/8/8
f 9/18/16 14/9/9 1/10/10
f 31/40/32 8/11/11 30/13/12
f 27/38/30 30/13/12 6/14/2
f 6/2/2 3/1/1 5/16/14
f 2/20/17 12/17/15 1/10/10
f 15/41/26 4/15/13 14/9/9
f 1/10/10 7/3/3 2/20/17
f 32/5/5 8/11/11 31/40/32
f 11/27/23 12/31/15 2/21/17
f 2/21/17 24/22/18 11/27/23
f 8/11/11 32/5/5 23/4/4
f 23/4/4 24/22/18 8/11/11
f 16/32/25 13/23/19 17/25/21
f 21/36/28 10/26/22 24/22/18
f 21/36/28 20/24/20 10/26/22
f 16/32/25 4/42/13 15/33/26
f 25/37/29 26/39/31 5/28/14
f 5/28/14 18/29/24 25/37/29
f 4/42/13 16/32/25 17/25/21
f 17/25/21 5/28/14 4/42/13
f 11/27/23 10/26/22 12/31/15
f 14/34/9 13/23/19 15/33/26
f 10/26/22 13/23/19 9/30/16
f 17/25/21 20/24/20 18/29/24
f 22/7/7 21/36/28 23/4/4
f 20/24/20 21/36/28 19/35/27
f 28/8/8 25/37/29 19/35/27
f 28/8/8 27/38/30 25/37/29
f 31/40/32 30/13/12 32/5/5
f 30/13/12 27/38/30 29/6/6
f 26/39/31 27/38/30 5/28/14
